<svg xmlns="http://www.w3.org/2000/svg" viewBox="0 0 1024 1024" role="img" aria-label="Dolly"><title>Dolly, light</title><defs><linearGradient id="tile" x1="0" y1="0" x2="0" y2="1"><stop offset="0" stop-color="#FCF6EC"/><stop offset="1" stop-color="#EFE3D0"/></linearGradient><linearGradient id="beam" gradientUnits="userSpaceOnUse" x1="640" y1="384" x2="424.3" y2="622.1"><stop offset="0" stop-color="#E98F4F" stop-opacity="0.45"/><stop offset="0.62" stop-color="#E98F4F" stop-opacity="0.12"/><stop offset="1" stop-color="#E98F4F" stop-opacity="0"/></linearGradient><radialGradient id="pool" cx="408" cy="640" r="181.4" gradientUnits="userSpaceOnUse"><stop offset="0" stop-color="#E98F4F" stop-opacity="0.2"/><stop offset="1" stop-color="#E98F4F" stop-opacity="0"/></radialGradient><radialGradient id="iris" cx="0.38" cy="0.34" r="0.75"><stop offset="0" stop-color="#F2A05E"/><stop offset="1" stop-color="#D8692F"/></radialGradient><linearGradient id="spark" x1="0" y1="0" x2="0" y2="1"><stop offset="0" stop-color="#EE8A4C"/><stop offset="1" stop-color="#C95A26"/></linearGradient></defs><rect width="1024" height="1024" rx="230" fill="url(#tile)"/><rect x="1.5" y="1.5" width="1021" height="1021" rx="228.5" fill="none" stroke="rgba(0,0,0,0.05)" stroke-width="3"/><g fill="none" stroke="#27251F" stroke-width="52" stroke-linecap="round" stroke-linejoin="round"><path d="M236 368V288A52 52 0 0 1 288 236H368"/><path d="M656 236H736A52 52 0 0 1 788 288V368"/><path d="M788 656V736A52 52 0 0 1 736 788H656"/><path d="M368 788H288A52 52 0 0 1 236 736V656"/></g><circle cx="408" cy="640" r="181.4" fill="url(#pool)"/><path d="M617 351.8L342.2 547.7L506.4 696.4L674.3 403.7Z" fill="url(#beam)"/><circle cx="640" cy="384" r="72" fill="#27251F"/><circle cx="640" cy="384" r="47.5" fill="#FBF4E8"/><circle cx="640" cy="384" r="28.8" fill="url(#iris)"/><circle cx="630.6" cy="373.2" r="8.6" fill="#FFF7EC" fill-opacity="0.85"/><path d="M408 556C421.44 626.56 421.44 626.56 492 640C421.44 653.44 421.44 653.44 408 724C394.56 653.44 394.56 653.44 324 640C394.56 626.56 394.56 626.56 408 556Z" fill="url(#spark)"/></svg>
