<svg xmlns="http://www.w3.org/2000/svg" viewBox="0 0 1024 1024" role="img" aria-label="Dolly"><title>Dolly (small), dark</title><defs><linearGradient id="tile" x1="0" y1="0" x2="0" y2="1"><stop offset="0" stop-color="#2C2B31"/><stop offset="1" stop-color="#161519"/></linearGradient><linearGradient id="beam" gradientUnits="userSpaceOnUse" x1="676" y1="348" x2="415.5" y2="622.2"><stop offset="0" stop-color="#FFD9A6" stop-opacity="0.5"/><stop offset="0.62" stop-color="#FFD9A6" stop-opacity="0.12"/><stop offset="1" stop-color="#FFD9A6" stop-opacity="0"/></linearGradient><radialGradient id="pool" cx="372" cy="668" r="324" gradientUnits="userSpaceOnUse"><stop offset="0" stop-color="#FFD9A6" stop-opacity="0.2"/><stop offset="1" stop-color="#FFD9A6" stop-opacity="0"/></radialGradient><radialGradient id="iris" cx="0.38" cy="0.34" r="0.75"><stop offset="0" stop-color="#FFC27D"/><stop offset="1" stop-color="#E9803F"/></radialGradient><linearGradient id="spark" x1="0" y1="0" x2="0" y2="1"><stop offset="0" stop-color="#FFE3B5"/><stop offset="1" stop-color="#FFB266"/></linearGradient></defs><rect width="1024" height="1024" rx="230" fill="url(#tile)"/><rect x="1.5" y="1.5" width="1021" height="1021" rx="228.5" fill="none" stroke="rgba(255,255,255,0.07)" stroke-width="3"/><circle cx="372" cy="668" r="324" fill="url(#pool)"/><path d="M645.2 290.9L276 489.7L555 754.8L734.6 375.8Z" fill="url(#beam)"/><circle cx="676" cy="348" r="118" fill="#F6EADA"/><circle cx="676" cy="348" r="77.9" fill="#1D1C21"/><circle cx="676" cy="348" r="47.2" fill="url(#iris)"/><circle cx="660.7" cy="330.3" r="14.2" fill="#FFF7EC" fill-opacity="0.85"/><path d="M372 518C396.0 644.0 396.0 644.0 522 668C396.0 692.0 396.0 692.0 372 818C348.0 692.0 348.0 692.0 222 668C348.0 644.0 348.0 644.0 372 518Z" fill="url(#spark)"/></svg>
